<svg width="38" height="27" viewBox="0 0 38 27" fill="none" xmlns="http://www.w3.org/2000/svg">
<path opacity="0.8" d="M30.1738 1.00586C30.6265 1.53122 30.9023 2.21407 30.9023 2.96191V23.9619C30.9022 24.7093 30.6261 25.3908 30.1738 25.916C32.3679 25.8041 34.1131 23.9914 34.1133 21.7695V5.1543C34.1133 2.93232 32.368 1.11779 30.1738 1.00586Z" fill="#F1F0EC" fill-opacity="0.6"/>
<path opacity="0.4" d="M34.8379 3C35.1218 3.34529 35.2918 3.78774 35.292 4.26953V23.2695C35.292 23.602 35.21 23.9154 35.0664 24.1914C36.7648 23.6701 37.9999 22.0898 38 20.2207V7.03516C38 5.08302 36.653 3.44494 34.8379 3Z" fill="#F1F0EC" fill-opacity="0.6"/>
<path d="M24.7686 0C27.0625 0.000225945 28.9229 1.86033 28.9229 4.1543V22.8457C28.9229 25.1397 27.0625 26.9998 24.7686 27H4.15332C1.85938 26.9998 0 25.1397 0 22.8457V4.1543C0 1.86031 1.85938 0.000196651 4.15332 0H24.7686ZM20.7246 7C20.5571 7.00001 20.3911 7.03837 20.2363 7.1123C20.0815 7.18629 19.9407 7.29496 19.8223 7.43164L11.1025 17.4863L7.19336 12.9795C7.07573 12.8391 6.93484 12.7274 6.7793 12.6504C6.62371 12.5733 6.45644 12.532 6.28711 12.5303C6.11774 12.5286 5.94974 12.5667 5.79297 12.6406C5.63622 12.7146 5.49378 12.8238 5.37402 12.9619C5.25434 13.1 5.15884 13.2637 5.09473 13.4443C5.03059 13.6251 4.99853 13.8193 5 14.0146C5.0015 14.2098 5.03674 14.4027 5.10352 14.582C5.17036 14.7615 5.26783 14.9239 5.38965 15.0596L10.1406 20.5361C10.267 20.6819 10.4169 20.7981 10.582 20.877C10.747 20.9557 10.9239 20.9961 11.1025 20.9961C11.2811 20.9961 11.4581 20.9557 11.623 20.877C11.7882 20.7981 11.9391 20.6819 12.0654 20.5361L21.627 9.51074C21.8659 9.23492 22 8.8606 22 8.4707C21.9999 8.08098 21.8658 7.70735 21.627 7.43164C21.5085 7.29501 21.3676 7.18628 21.2129 7.1123C21.0581 7.03836 20.8921 7.00003 20.7246 7Z" fill="#F1F0EC" fill-opacity="0.95"/>
</svg>
