<svg width="31" height="31" viewBox="0 0 31 31" fill="none" xmlns="http://www.w3.org/2000/svg">
<path fill-rule="evenodd" clip-rule="evenodd" d="M10.3421 8.59009H20.6589C25.8886 8.59009 28.505 8.59009 29.9744 10.1199C31.4438 11.6498 31.0966 14.012 30.4053 18.7379L29.7512 23.2205C29.2087 26.9266 28.9375 28.7804 27.5471 29.8902C26.1568 31 24.1061 31 20.0033 31H10.9978C6.89646 31 4.84426 31 3.45391 29.8902C2.06356 28.7804 1.79231 26.9266 1.24981 23.2205L0.59571 18.7379C-0.0971396 14.012 -0.44279 11.6498 1.02661 10.1199C2.49601 8.59009 5.11241 8.59009 10.3421 8.59009ZM9.30051 24.8C9.30051 24.1583 9.87866 23.6375 10.5917 23.6375H20.4094C21.1224 23.6375 21.7005 24.1583 21.7005 24.8C21.7005 25.4417 21.1224 25.9625 20.4094 25.9625H10.5917C9.87866 25.9625 9.30051 25.4417 9.30051 24.8Z" fill="#F1F0EC"/>
<path opacity="0.4" d="M10.0914 0H20.9104C21.2716 0 21.5459 1.6205e-07 21.7893 0.0232502C23.5067 0.1922 24.911 1.2245 25.5077 2.61485H5.49414C6.09089 1.2245 7.49674 0.1922 9.21414 0.0232502C9.45439 1.6205e-07 9.73184 0 10.0914 0Z" fill="#F1F0EC"/>
<path opacity="0.7" d="M6.68247 4.22046C4.52797 4.22046 2.76097 5.52246 2.17197 7.24761L2.13477 7.35611C2.76002 7.17548 3.39853 7.04436 4.04437 6.96396C5.71837 6.75006 7.83567 6.75006 10.294 6.75006H20.9766C23.4349 6.75006 25.5522 6.75006 27.2262 6.96396C27.8772 7.04766 28.5189 7.17011 29.1358 7.35611L29.1001 7.24761C28.5111 5.52091 26.7441 4.22046 24.5881 4.22046H6.68247Z" fill="#F1F0EC"/>
</svg>
