<svg width="132" height="44" viewBox="0 0 132 44" fill="none" xmlns="http://www.w3.org/2000/svg">
<path d="M1.26329 8.00408H13.0642V12.6464H7.65161V14.1665H13.0642V18.6444H7.65161V24.4062H1.26329V8.00408ZM18.1174 5.72401C19.0896 5.72401 19.8052 5.94311 20.2639 6.38133C20.7295 6.81954 20.9623 7.3228 20.9623 7.89111C20.9623 8.31563 20.8288 8.73672 20.5618 9.15439C20.3016 9.56522 19.9181 9.90757 19.4115 10.1815C18.9048 10.4485 18.2851 10.582 17.5525 10.582C16.498 10.582 15.7551 10.3697 15.3238 9.94523C14.8992 9.51386 14.687 9.02772 14.687 8.4868C14.687 8.04859 14.8136 7.62065 15.067 7.20298C15.3203 6.77846 15.7003 6.42583 16.207 6.1451C16.7206 5.86437 17.3573 5.72401 18.1174 5.72401ZM20.7877 24.4062H14.841V11.6399H20.7877V24.4062ZM29.1275 24.4062H23.304V7.12081H29.1275V24.4062ZM39.9321 17.8228C39.9321 16.9053 39.7747 16.224 39.4597 15.7789C39.1447 15.3339 38.84 15.1113 38.5456 15.1113C38.2375 15.1113 38.0218 15.2414 37.8986 15.5016C37.7822 15.7618 37.724 16.0734 37.724 16.4363V24.4062H31.6232V11.6399H34.992L36.4607 13.6324C36.8099 13.112 37.2515 12.6704 37.7856 12.3075C38.3265 11.9377 38.9119 11.6536 39.5419 11.455C40.1786 11.2564 40.812 11.1572 41.4419 11.1572C42.2567 11.1572 42.9996 11.3523 43.6706 11.7426C44.3417 12.126 44.862 12.6738 45.2318 13.3859C45.7864 12.6806 46.4403 12.1329 47.1935 11.7426C47.9466 11.3523 48.7238 11.1572 49.5249 11.1572C50.3123 11.1572 51.0312 11.3386 51.6817 11.7015C52.3322 12.0576 52.8526 12.5745 53.2428 13.2524C53.64 13.9302 53.8385 14.745 53.8385 15.6968V24.4062H47.8816V17.8228C47.8816 16.9053 47.7378 16.224 47.4502 15.7789C47.1626 15.3339 46.8716 15.1113 46.5772 15.1113C46.2965 15.1113 46.0877 15.2277 45.9507 15.4605C45.8206 15.6865 45.7556 15.9604 45.7556 16.2822V24.4062H39.9321V17.8228ZM1.26329 27.0041H13.0642V31.6464H7.65161V33.1665H13.0642V37.6444H7.65161V43.4062H1.26329V27.0041ZM21.6504 43.7863C20.7329 43.7863 19.8394 43.6288 18.9698 43.3138C18.1002 42.992 17.3163 42.5332 16.6178 41.9376C15.9263 41.335 15.3751 40.6161 14.9643 39.7807C14.5603 38.9385 14.3583 38.0005 14.3583 36.9666C14.3583 35.9464 14.55 35.0186 14.9335 34.1832C15.3169 33.3479 15.8441 32.6324 16.5151 32.0367C17.1862 31.4341 17.9599 30.972 18.8363 30.6502C19.7196 30.3215 20.6576 30.1572 21.6504 30.1572C23.0473 30.1572 24.3105 30.4345 25.4403 30.9891C26.5701 31.5368 27.4636 32.3243 28.1209 33.3513C28.7851 34.3715 29.1172 35.5903 29.1172 37.0077C29.1172 38.0484 28.9152 38.9865 28.5112 39.8218C28.1072 40.6571 27.5561 41.3692 26.8576 41.9581C26.1592 42.5469 25.3616 42.9988 24.4646 43.3138C23.5745 43.6288 22.6364 43.7863 21.6504 43.7863ZM21.0034 39.6369C21.3047 39.6369 21.6402 39.4966 22.0099 39.2158C22.3797 38.9283 22.7357 38.5654 23.0781 38.1272C23.4204 37.6821 23.7011 37.2165 23.9203 36.7304C24.1462 36.2442 24.2592 35.7992 24.2592 35.3952C24.2592 35.0871 24.177 34.8063 24.0127 34.553C23.8552 34.2996 23.5813 34.173 23.191 34.173C22.835 34.173 22.4584 34.3099 22.0613 34.5838C21.6641 34.8508 21.291 35.2035 20.9418 35.6417C20.5994 36.073 20.3187 36.5352 20.0996 37.0282C19.8873 37.5143 19.7812 37.9799 19.7812 38.425C19.7812 38.7263 19.8702 39.0036 20.0482 39.2569C20.2263 39.5103 20.5446 39.6369 21.0034 39.6369ZM37.2104 36.5866C37.2104 37.463 37.2857 38.1477 37.4364 38.6407C37.5939 39.1268 37.7958 39.4692 38.0423 39.6677C38.2957 39.8595 38.5627 39.9553 38.8435 39.9553C39.2543 39.9553 39.5213 39.8321 39.6446 39.5856C39.7747 39.3322 39.8397 39.007 39.8397 38.6099V30.6399H45.9404V43.4062H42.5717L41.103 41.4035C40.5347 42.184 39.7644 42.7934 38.7921 43.2316C37.8267 43.6699 36.827 43.889 35.7931 43.889C34.9372 43.889 34.1498 43.7109 33.4308 43.3549C32.7119 42.992 32.1367 42.4716 31.7054 41.7938C31.2809 41.1159 31.0686 40.3011 31.0686 39.3494V30.6399H37.2104V36.5866ZM57.1354 37.2439C57.1354 36.1278 56.9711 35.3267 56.6424 34.8406C56.3206 34.3544 55.8824 34.1113 55.3278 34.1113C55.0197 34.1113 54.804 34.2414 54.6807 34.5016C54.5643 34.7618 54.5061 35.0734 54.5061 35.4363V43.4062H48.4054V30.6399H51.7742L53.2428 32.6324C53.8112 31.8587 54.578 31.2527 55.5435 30.8145C56.5089 30.3763 57.5086 30.1572 58.5425 30.1572C59.4052 30.1572 60.1961 30.3386 60.915 30.7015C61.6339 31.0576 62.2057 31.5745 62.6302 32.2524C63.0616 32.9302 63.2772 33.745 63.2772 34.6968V43.4062H57.1354V37.2439ZM65.1157 30.6399H66.2865V27.189L72.4283 26.5624V30.6399H75.3349V33.8957H72.4283V37.1206C72.4283 38.0518 72.6372 38.7434 73.0549 39.1953C73.4725 39.6472 74.2326 39.8732 75.3349 39.8732V42.4819C74.7461 42.879 74.0751 43.1974 73.3219 43.4371C72.5687 43.6836 71.8018 43.8068 71.0213 43.8068C70.1585 43.8068 69.3677 43.6254 68.6488 43.2625C67.9367 42.8996 67.3649 42.3758 66.9336 41.6911C66.5022 41.0064 66.2865 40.1881 66.2865 39.2364V33.8957H65.1157V30.6399Z" fill="#232323"/>
<g filter="url(#filter0_n_11_252)">
<path d="M96.5439 42C96.5439 23.0915 85.2051 21.5122 75.9951 18.439M96.5439 42V0M96.5439 42C99.8544 29.9949 102.056 24.3592 108.752 23.0915" stroke="#232323" stroke-width="3.75893"/>
</g>
<defs>
<filter id="filter0_n_11_252" x="75.4004" y="0" width="33.7012" height="42.4995" filterUnits="userSpaceOnUse" color-interpolation-filters="sRGB">
<feFlood flood-opacity="0" result="BackgroundImageFix"/>
<feBlend mode="normal" in="SourceGraphic" in2="BackgroundImageFix" result="shape"/>
<feTurbulence type="fractalNoise" baseFrequency="6.2074365615844727 6.2074365615844727" stitchTiles="stitch" numOctaves="3" result="noise" seed="3139" />
<feColorMatrix in="noise" type="luminanceToAlpha" result="alphaNoise" />
<feComponentTransfer in="alphaNoise" result="coloredNoise1">
<feFuncA type="discrete" tableValues="0 0 0 1 1 1 1 1 1 1 1 1 1 1 1 1 1 1 1 1 1 1 1 1 1 1 1 1 1 1 1 1 1 1 1 1 1 1 1 1 1 1 1 1 1 1 1 1 0 0 0 0 0 0 0 0 0 0 0 0 0 0 0 0 0 0 0 0 0 0 0 0 0 0 0 0 0 0 0 0 0 0 0 0 0 0 0 0 0 0 0 0 0 0 0 0 0 0 0 0 "/>
</feComponentTransfer>
<feComposite operator="in" in2="shape" in="coloredNoise1" result="noise1Clipped" />
<feFlood flood-color="rgba(0, 0, 0, 0.25)" result="color1Flood" />
<feComposite operator="in" in2="noise1Clipped" in="color1Flood" result="color1" />
<feMerge result="effect1_noise_11_252">
<feMergeNode in="shape" />
<feMergeNode in="color1" />
</feMerge>
</filter>
</defs>
</svg>
