<svg width="299" height="153" viewBox="0 0 299 153" fill="none" xmlns="http://www.w3.org/2000/svg">
<path d="M2.94531 80.5703H29.875V91.1641H17.5234V94.6328H29.875V104.852H17.5234V118H2.94531V80.5703ZM41.4062 75.3672C43.625 75.3672 45.2578 75.8672 46.3047 76.8672C47.3672 77.8672 47.8984 79.0156 47.8984 80.3125C47.8984 81.2812 47.5938 82.2422 46.9844 83.1953C46.3906 84.1328 45.5156 84.9141 44.3594 85.5391C43.2031 86.1484 41.7891 86.4531 40.1172 86.4531C37.7109 86.4531 36.0156 85.9688 35.0312 85C34.0625 84.0156 33.5781 82.9062 33.5781 81.6719C33.5781 80.6719 33.8672 79.6953 34.4453 78.7422C35.0234 77.7734 35.8906 76.9688 37.0469 76.3281C38.2188 75.6875 39.6719 75.3672 41.4062 75.3672ZM47.5 118H33.9297V88.8672H47.5V118ZM66.5312 118H53.2422V78.5547H66.5312V118ZM91.1875 102.977C91.1875 100.883 90.8281 99.3281 90.1094 98.3125C89.3906 97.2969 88.6953 96.7891 88.0234 96.7891C87.3203 96.7891 86.8281 97.0859 86.5469 97.6797C86.2812 98.2734 86.1484 98.9844 86.1484 99.8125V118H72.2266V88.8672H79.9141L83.2656 93.4141C84.0625 92.2266 85.0703 91.2188 86.2891 90.3906C87.5234 89.5469 88.8594 88.8984 90.2969 88.4453C91.75 87.9922 93.1953 87.7656 94.6328 87.7656C96.4922 87.7656 98.1875 88.2109 99.7188 89.1016C101.25 89.9766 102.438 91.2266 103.281 92.8516C104.547 91.2422 106.039 89.9922 107.758 89.1016C109.477 88.2109 111.25 87.7656 113.078 87.7656C114.875 87.7656 116.516 88.1797 118 89.0078C119.484 89.8203 120.672 91 121.562 92.5469C122.469 94.0938 122.922 95.9531 122.922 98.125V118H109.328V102.977C109.328 100.883 109 99.3281 108.344 98.3125C107.688 97.2969 107.023 96.7891 106.352 96.7891C105.711 96.7891 105.234 97.0547 104.922 97.5859C104.625 98.1016 104.477 98.7266 104.477 99.4609V118H91.1875V102.977ZM128.43 80.5703H155.359V91.1641H143.008V94.6328H155.359V104.852H143.008V118H128.43V80.5703ZM174.953 118.867C172.859 118.867 170.82 118.508 168.836 117.789C166.852 117.055 165.062 116.008 163.469 114.648C161.891 113.273 160.633 111.633 159.695 109.727C158.773 107.805 158.312 105.664 158.312 103.305C158.312 100.977 158.75 98.8594 159.625 96.9531C160.5 95.0469 161.703 93.4141 163.234 92.0547C164.766 90.6797 166.531 89.625 168.531 88.8906C170.547 88.1406 172.688 87.7656 174.953 87.7656C178.141 87.7656 181.023 88.3984 183.602 89.6641C186.18 90.9141 188.219 92.7109 189.719 95.0547C191.234 97.3828 191.992 100.164 191.992 103.398C191.992 105.773 191.531 107.914 190.609 109.82C189.688 111.727 188.43 113.352 186.836 114.695C185.242 116.039 183.422 117.07 181.375 117.789C179.344 118.508 177.203 118.867 174.953 118.867ZM173.477 109.398C174.164 109.398 174.93 109.078 175.773 108.438C176.617 107.781 177.43 106.953 178.211 105.953C178.992 104.938 179.633 103.875 180.133 102.766C180.648 101.656 180.906 100.641 180.906 99.7188C180.906 99.0156 180.719 98.375 180.344 97.7969C179.984 97.2188 179.359 96.9297 178.469 96.9297C177.656 96.9297 176.797 97.2422 175.891 97.8672C174.984 98.4766 174.133 99.2812 173.336 100.281C172.555 101.266 171.914 102.32 171.414 103.445C170.93 104.555 170.688 105.617 170.688 106.633C170.688 107.32 170.891 107.953 171.297 108.531C171.703 109.109 172.43 109.398 173.477 109.398ZM210.461 102.438C210.461 104.438 210.633 106 210.977 107.125C211.336 108.234 211.797 109.016 212.359 109.469C212.938 109.906 213.547 110.125 214.188 110.125C215.125 110.125 215.734 109.844 216.016 109.281C216.312 108.703 216.461 107.961 216.461 107.055V88.8672H230.383V118H222.695L219.344 113.43C218.047 115.211 216.289 116.602 214.07 117.602C211.867 118.602 209.586 119.102 207.227 119.102C205.273 119.102 203.477 118.695 201.836 117.883C200.195 117.055 198.883 115.867 197.898 114.32C196.93 112.773 196.445 110.914 196.445 108.742V88.8672H210.461V102.438ZM255.93 103.938C255.93 101.391 255.555 99.5625 254.805 98.4531C254.07 97.3438 253.07 96.7891 251.805 96.7891C251.102 96.7891 250.609 97.0859 250.328 97.6797C250.062 98.2734 249.93 98.9844 249.93 99.8125V118H236.008V88.8672H243.695L247.047 93.4141C248.344 91.6484 250.094 90.2656 252.297 89.2656C254.5 88.2656 256.781 87.7656 259.141 87.7656C261.109 87.7656 262.914 88.1797 264.555 89.0078C266.195 89.8203 267.5 91 268.469 92.5469C269.453 94.0938 269.945 95.9531 269.945 98.125V118H255.93V103.938ZM274.141 88.8672H276.812V80.9922L290.828 79.5625V88.8672H297.461V96.2969H290.828V103.656C290.828 105.781 291.305 107.359 292.258 108.391C293.211 109.422 294.945 109.938 297.461 109.938V115.891C296.117 116.797 294.586 117.523 292.867 118.07C291.148 118.633 289.398 118.914 287.617 118.914C285.648 118.914 283.844 118.5 282.203 117.672C280.578 116.844 279.273 115.648 278.289 114.086C277.305 112.523 276.812 110.656 276.812 108.484V96.2969H274.141V88.8672Z" fill="#F1F0EC"/>
<g filter="url(#filter0_n_11_87)">
<path d="M157.267 78.2137C157.267 43.0016 136.151 40.0607 119 34.3377M157.267 78.2137V0M157.267 78.2137C163.432 55.8575 167.531 45.3624 180 43.0016" stroke="#F1F0EC" stroke-width="7"/>
</g>
<path d="M55.4788 136.152C55.2388 135.88 54.9588 135.64 54.6388 135.432C54.3188 135.208 53.9588 135.016 53.5588 134.856C53.1588 134.696 52.7268 134.568 52.2628 134.472C51.8148 134.376 51.3348 134.328 50.8228 134.328C49.3348 134.328 48.2388 134.616 47.5348 135.192C46.8468 135.752 46.5028 136.52 46.5028 137.496C46.5028 138.168 46.6628 138.696 46.9828 139.08C47.3188 139.464 47.8388 139.776 48.5428 140.016C49.2468 140.256 50.1428 140.504 51.2308 140.76C52.4468 141.016 53.4948 141.32 54.3748 141.672C55.2548 142.024 55.9348 142.504 56.4148 143.112C56.8948 143.704 57.1348 144.512 57.1348 145.536C57.1348 146.32 56.9828 147 56.6788 147.576C56.3748 148.152 55.9508 148.632 55.4068 149.016C54.8628 149.4 54.2148 149.688 53.4628 149.88C52.7108 150.056 51.8868 150.144 50.9908 150.144C50.1108 150.144 49.2628 150.056 48.4468 149.88C47.6468 149.688 46.8868 149.416 46.1668 149.064C45.4468 148.696 44.7748 148.232 44.1508 147.672L44.9908 146.304C45.2948 146.624 45.6548 146.928 46.0708 147.216C46.5028 147.488 46.9748 147.736 47.4868 147.96C48.0148 148.184 48.5748 148.36 49.1668 148.488C49.7748 148.6 50.3988 148.656 51.0388 148.656C52.3988 148.656 53.4548 148.408 54.2068 147.912C54.9748 147.416 55.3588 146.68 55.3588 145.704C55.3588 145 55.1668 144.44 54.7828 144.024C54.3988 143.592 53.8228 143.24 53.0548 142.968C52.2868 142.696 51.3428 142.432 50.2228 142.176C49.0388 141.904 48.0388 141.6 47.2228 141.264C46.4068 140.928 45.7908 140.488 45.3748 139.944C44.9748 139.384 44.7748 138.648 44.7748 137.736C44.7748 136.68 45.0308 135.792 45.5428 135.072C46.0708 134.336 46.7908 133.784 47.7028 133.416C48.6148 133.032 49.6628 132.84 50.8468 132.84C51.5988 132.84 52.2948 132.92 52.9348 133.08C53.5908 133.224 54.1908 133.44 54.7348 133.728C55.2948 134.016 55.8148 134.376 56.2948 134.808L55.4788 136.152ZM59.6409 144.84V137.496H61.2729V144.552C61.2729 145.976 61.5129 147.04 61.9929 147.744C62.4889 148.448 63.2169 148.8 64.1769 148.8C64.8169 148.8 65.4329 148.664 66.0249 148.392C66.6329 148.104 67.1689 147.704 67.6329 147.192C68.0969 146.664 68.4489 146.056 68.6889 145.368V137.496H70.3209V148.032C70.3209 148.256 70.3689 148.424 70.4649 148.536C70.5609 148.632 70.7049 148.688 70.8969 148.704V150C70.7049 150.016 70.5529 150.024 70.4409 150.024C70.3289 150.04 70.2249 150.048 70.1289 150.048C69.8089 150.016 69.5289 149.888 69.2889 149.664C69.0649 149.44 68.9449 149.168 68.9289 148.848L68.8809 147.168C68.3369 148.128 67.5929 148.88 66.6489 149.424C65.7209 149.968 64.7129 150.24 63.6249 150.24C62.3129 150.24 61.3209 149.784 60.6489 148.872C59.9769 147.96 59.6409 146.616 59.6409 144.84ZM73.0029 146.4C73.0029 145.616 73.2269 144.944 73.6749 144.384C74.1229 143.808 74.7389 143.368 75.5229 143.064C76.3229 142.744 77.2429 142.584 78.2829 142.584C78.8909 142.584 79.5229 142.632 80.1789 142.728C80.8349 142.824 81.4189 142.968 81.9309 143.16V142.104C81.9309 141.048 81.6189 140.208 80.9949 139.584C80.3709 138.96 79.5069 138.648 78.4029 138.648C77.7309 138.648 77.0669 138.776 76.4109 139.032C75.7709 139.272 75.0989 139.632 74.3949 140.112L73.7709 138.96C74.5869 138.4 75.3869 137.984 76.1709 137.712C76.9549 137.424 77.7549 137.28 78.5709 137.28C80.1069 137.28 81.3229 137.72 82.2189 138.6C83.1149 139.48 83.5629 140.696 83.5629 142.248V148.032C83.5629 148.256 83.6109 148.424 83.7069 148.536C83.8029 148.632 83.9549 148.688 84.1629 148.704V150C83.9869 150.016 83.8349 150.032 83.7069 150.048C83.5789 150.064 83.4829 150.064 83.4189 150.048C83.0189 150.032 82.7149 149.904 82.5069 149.664C82.2989 149.424 82.1869 149.168 82.1709 148.896L82.1469 147.984C81.5869 148.704 80.8589 149.264 79.9629 149.664C79.0669 150.048 78.1549 150.24 77.2269 150.24C76.4269 150.24 75.6989 150.072 75.0429 149.736C74.4029 149.384 73.8989 148.92 73.5309 148.344C73.1789 147.752 73.0029 147.104 73.0029 146.4ZM81.3789 147.36C81.5549 147.136 81.6909 146.92 81.7869 146.712C81.8829 146.504 81.9309 146.32 81.9309 146.16V144.336C81.3869 144.128 80.8189 143.968 80.2269 143.856C79.6509 143.744 79.0669 143.688 78.4749 143.688C77.3069 143.688 76.3629 143.92 75.6429 144.384C74.9229 144.848 74.5629 145.48 74.5629 146.28C74.5629 146.744 74.6829 147.184 74.9229 147.6C75.1629 148 75.5149 148.336 75.9789 148.608C76.4429 148.864 76.9869 148.992 77.6109 148.992C78.3949 148.992 79.1229 148.84 79.7949 148.536C80.4829 148.232 81.0109 147.84 81.3789 147.36ZM93.8063 150V138.792H92.0783V137.496H93.8063V137.16C93.8063 136.136 93.9503 135.256 94.2383 134.52C94.5423 133.784 94.9663 133.224 95.5103 132.84C96.0703 132.44 96.7263 132.24 97.4783 132.24C97.9743 132.24 98.4543 132.312 98.9183 132.456C99.3823 132.6 99.7823 132.792 100.118 133.032L99.6143 134.208C99.4063 134.032 99.1343 133.896 98.7983 133.8C98.4623 133.704 98.1263 133.656 97.7903 133.656C97.0383 133.656 96.4543 133.952 96.0383 134.544C95.6383 135.136 95.4383 135.992 95.4383 137.112V137.496H98.8943V138.792H95.4383V150H93.8063ZM106.058 150.24C105.162 150.24 104.33 150.072 103.562 149.736C102.81 149.384 102.154 148.912 101.594 148.32C101.05 147.712 100.626 147.024 100.322 146.256C100.018 145.472 99.8657 144.648 99.8657 143.784C99.8657 142.888 100.018 142.056 100.322 141.288C100.626 140.504 101.058 139.816 101.618 139.224C102.178 138.616 102.834 138.144 103.586 137.808C104.354 137.456 105.186 137.28 106.082 137.28C106.978 137.28 107.802 137.456 108.554 137.808C109.306 138.144 109.962 138.616 110.522 139.224C111.082 139.816 111.514 140.504 111.818 141.288C112.122 142.056 112.274 142.888 112.274 143.784C112.274 144.648 112.122 145.472 111.818 146.256C111.514 147.024 111.082 147.712 110.522 148.32C109.978 148.912 109.322 149.384 108.554 149.736C107.802 150.072 106.97 150.24 106.058 150.24ZM101.522 143.808C101.522 144.736 101.722 145.584 102.122 146.352C102.538 147.104 103.09 147.704 103.778 148.152C104.466 148.584 105.226 148.8 106.058 148.8C106.89 148.8 107.65 148.576 108.338 148.128C109.026 147.68 109.578 147.072 109.994 146.304C110.41 145.52 110.618 144.672 110.618 143.76C110.618 142.832 110.41 141.984 109.994 141.216C109.578 140.448 109.026 139.84 108.338 139.392C107.65 138.944 106.89 138.72 106.058 138.72C105.226 138.72 104.466 138.952 103.778 139.416C103.106 139.88 102.562 140.496 102.146 141.264C101.73 142.016 101.522 142.864 101.522 143.808ZM125.515 150H123.883V143.016C123.883 141.544 123.667 140.472 123.235 139.8C122.803 139.112 122.123 138.768 121.195 138.768C120.555 138.768 119.923 138.928 119.299 139.248C118.675 139.552 118.123 139.976 117.643 140.52C117.179 141.048 116.843 141.656 116.635 142.344V150H115.003V137.496H116.491V140.328C116.827 139.72 117.267 139.192 117.811 138.744C118.355 138.28 118.971 137.92 119.659 137.664C120.347 137.408 121.059 137.28 121.795 137.28C122.483 137.28 123.067 137.408 123.547 137.664C124.027 137.92 124.411 138.288 124.699 138.768C124.987 139.232 125.195 139.8 125.323 140.472C125.451 141.128 125.515 141.864 125.515 142.68V150ZM134.878 149.4C134.75 149.448 134.55 149.536 134.278 149.664C134.006 149.792 133.678 149.904 133.294 150C132.91 150.096 132.494 150.144 132.046 150.144C131.582 150.144 131.142 150.056 130.726 149.88C130.326 149.704 130.006 149.44 129.766 149.088C129.526 148.72 129.406 148.272 129.406 147.744V138.792H127.678V137.496H129.406V133.272H131.038V137.496H133.918V138.792H131.038V147.288C131.07 147.736 131.23 148.072 131.518 148.296C131.822 148.52 132.166 148.632 132.55 148.632C132.998 148.632 133.406 148.56 133.774 148.416C134.142 148.256 134.366 148.144 134.446 148.08L134.878 149.4ZM142.106 150.24C141.21 150.24 140.378 150.072 139.61 149.736C138.842 149.384 138.178 148.912 137.618 148.32C137.058 147.712 136.618 147.016 136.298 146.232C135.994 145.448 135.842 144.608 135.842 143.712C135.842 142.544 136.106 141.472 136.634 140.496C137.178 139.52 137.922 138.744 138.866 138.168C139.81 137.576 140.882 137.28 142.082 137.28C143.314 137.28 144.386 137.576 145.298 138.168C146.226 138.76 146.954 139.544 147.482 140.52C148.01 141.48 148.274 142.536 148.274 143.688C148.274 143.816 148.274 143.944 148.274 144.072C148.274 144.184 148.266 144.272 148.25 144.336H137.546C137.626 145.232 137.874 146.032 138.29 146.736C138.722 147.424 139.274 147.976 139.946 148.392C140.634 148.792 141.378 148.992 142.178 148.992C142.994 148.992 143.762 148.784 144.482 148.368C145.218 147.952 145.73 147.408 146.018 146.736L147.434 147.12C147.178 147.712 146.786 148.248 146.258 148.728C145.73 149.208 145.106 149.584 144.386 149.856C143.682 150.112 142.922 150.24 142.106 150.24ZM137.498 143.16H146.738C146.674 142.248 146.426 141.448 145.994 140.76C145.578 140.072 145.026 139.536 144.338 139.152C143.666 138.752 142.922 138.552 142.106 138.552C141.29 138.552 140.546 138.752 139.874 139.152C139.202 139.536 138.65 140.08 138.218 140.784C137.802 141.472 137.562 142.264 137.498 143.16ZM156.069 143.784C156.069 142.6 156.309 141.52 156.789 140.544C157.285 139.552 157.965 138.76 158.829 138.168C159.693 137.576 160.677 137.28 161.781 137.28C162.821 137.28 163.749 137.56 164.565 138.12C165.397 138.664 166.045 139.328 166.509 140.112V132.48H168.141V148.032C168.141 148.256 168.189 148.424 168.285 148.536C168.381 148.632 168.525 148.688 168.717 148.704V150C168.397 150.048 168.149 150.064 167.973 150.048C167.637 150.032 167.341 149.896 167.085 149.64C166.829 149.384 166.701 149.104 166.701 148.8V147.576C166.205 148.392 165.533 149.04 164.685 149.52C163.837 150 162.957 150.24 162.045 150.24C161.181 150.24 160.381 150.064 159.645 149.712C158.925 149.36 158.293 148.88 157.749 148.272C157.221 147.664 156.805 146.976 156.501 146.208C156.213 145.424 156.069 144.616 156.069 143.784ZM166.509 145.704V141.84C166.301 141.264 165.965 140.744 165.501 140.28C165.037 139.8 164.509 139.424 163.917 139.152C163.341 138.864 162.765 138.72 162.189 138.72C161.517 138.72 160.909 138.864 160.365 139.152C159.821 139.424 159.349 139.8 158.949 140.28C158.565 140.76 158.269 141.304 158.061 141.912C157.853 142.52 157.749 143.144 157.749 143.784C157.749 144.456 157.861 145.096 158.085 145.704C158.325 146.312 158.661 146.856 159.093 147.336C159.525 147.8 160.021 148.16 160.581 148.416C161.141 148.672 161.749 148.8 162.405 148.8C162.821 148.8 163.253 148.72 163.701 148.56C164.149 148.4 164.573 148.184 164.973 147.912C165.389 147.624 165.733 147.288 166.005 146.904C166.277 146.52 166.445 146.12 166.509 145.704ZM177.239 150.24C176.343 150.24 175.511 150.072 174.743 149.736C173.975 149.384 173.311 148.912 172.751 148.32C172.191 147.712 171.751 147.016 171.431 146.232C171.127 145.448 170.975 144.608 170.975 143.712C170.975 142.544 171.239 141.472 171.767 140.496C172.311 139.52 173.055 138.744 173.999 138.168C174.943 137.576 176.015 137.28 177.215 137.28C178.447 137.28 179.519 137.576 180.431 138.168C181.359 138.76 182.087 139.544 182.615 140.52C183.143 141.48 183.407 142.536 183.407 143.688C183.407 143.816 183.407 143.944 183.407 144.072C183.407 144.184 183.399 144.272 183.383 144.336H172.679C172.759 145.232 173.007 146.032 173.423 146.736C173.855 147.424 174.407 147.976 175.079 148.392C175.767 148.792 176.511 148.992 177.311 148.992C178.127 148.992 178.895 148.784 179.615 148.368C180.351 147.952 180.863 147.408 181.151 146.736L182.567 147.12C182.311 147.712 181.919 148.248 181.391 148.728C180.863 149.208 180.239 149.584 179.519 149.856C178.815 150.112 178.055 150.24 177.239 150.24ZM172.631 143.16H181.871C181.807 142.248 181.559 141.448 181.127 140.76C180.711 140.072 180.159 139.536 179.471 139.152C178.799 138.752 178.055 138.552 177.239 138.552C176.423 138.552 175.679 138.752 175.007 139.152C174.335 139.536 173.783 140.08 173.351 140.784C172.935 141.472 172.695 142.264 172.631 143.16ZM192.642 138.792H190.914V137.496H192.642V137.16C192.642 136.568 192.73 135.984 192.906 135.408C193.082 134.832 193.346 134.304 193.698 133.824C194.066 133.344 194.522 132.96 195.066 132.672C195.626 132.384 196.29 132.24 197.058 132.24C197.65 132.24 198.178 132.304 198.642 132.432C199.122 132.56 199.538 132.712 199.89 132.888C200.242 133.064 200.506 133.224 200.682 133.368L199.938 134.544C199.682 134.304 199.298 134.104 198.786 133.944C198.29 133.768 197.746 133.68 197.154 133.68C196.482 133.68 195.93 133.856 195.498 134.208C195.082 134.544 194.77 134.976 194.562 135.504C194.37 136.032 194.274 136.568 194.274 137.112V137.496H200.538V150H198.906V138.792H194.274V150H192.642V138.792ZM204.208 132.48H205.84V147.168C205.84 147.792 205.952 148.2 206.176 148.392C206.4 148.584 206.672 148.68 206.992 148.68C207.28 148.68 207.568 148.648 207.856 148.584C208.144 148.52 208.392 148.456 208.6 148.392L208.888 149.712C208.584 149.84 208.208 149.944 207.76 150.024C207.328 150.104 206.952 150.144 206.632 150.144C205.896 150.144 205.304 149.928 204.856 149.496C204.424 149.064 204.208 148.472 204.208 147.72V132.48ZM229.275 150H227.643V143.016C227.643 141.56 227.411 140.488 226.947 139.8C226.483 139.112 225.795 138.768 224.883 138.768C223.939 138.768 223.091 139.104 222.339 139.776C221.603 140.448 221.083 141.312 220.779 142.368V150H219.147V143.016C219.147 141.544 218.923 140.472 218.475 139.8C218.027 139.112 217.339 138.768 216.411 138.768C215.483 138.768 214.643 139.096 213.891 139.752C213.139 140.408 212.611 141.272 212.307 142.344V150H210.675V137.496H212.163V140.328C212.691 139.352 213.363 138.6 214.179 138.072C215.011 137.544 215.931 137.28 216.939 137.28C217.979 137.28 218.819 137.576 219.459 138.168C220.099 138.76 220.491 139.536 220.635 140.496C221.211 139.44 221.899 138.64 222.699 138.096C223.515 137.552 224.435 137.28 225.459 137.28C226.163 137.28 226.755 137.408 227.235 137.664C227.731 137.92 228.123 138.288 228.411 138.768C228.715 139.232 228.931 139.8 229.059 140.472C229.203 141.128 229.275 141.864 229.275 142.68V150ZM238.13 150.24C237.234 150.24 236.402 150.072 235.634 149.736C234.866 149.384 234.202 148.912 233.642 148.32C233.082 147.712 232.642 147.016 232.322 146.232C232.018 145.448 231.866 144.608 231.866 143.712C231.866 142.544 232.13 141.472 232.658 140.496C233.202 139.52 233.946 138.744 234.89 138.168C235.834 137.576 236.906 137.28 238.106 137.28C239.338 137.28 240.41 137.576 241.322 138.168C242.25 138.76 242.978 139.544 243.506 140.52C244.034 141.48 244.298 142.536 244.298 143.688C244.298 143.816 244.298 143.944 244.298 144.072C244.298 144.184 244.29 144.272 244.274 144.336H233.57C233.65 145.232 233.898 146.032 234.314 146.736C234.746 147.424 235.298 147.976 235.97 148.392C236.658 148.792 237.402 148.992 238.202 148.992C239.018 148.992 239.786 148.784 240.506 148.368C241.242 147.952 241.754 147.408 242.042 146.736L243.458 147.12C243.202 147.712 242.81 148.248 242.282 148.728C241.754 149.208 241.13 149.584 240.41 149.856C239.706 150.112 238.946 150.24 238.13 150.24ZM233.522 143.16H242.762C242.698 142.248 242.45 141.448 242.018 140.76C241.602 140.072 241.05 139.536 240.362 139.152C239.69 138.752 238.946 138.552 238.13 138.552C237.314 138.552 236.57 138.752 235.898 139.152C235.226 139.536 234.674 140.08 234.242 140.784C233.826 141.472 233.586 142.264 233.522 143.16ZM250.92 150.24C249.896 150.24 248.944 150.072 248.064 149.736C247.184 149.4 246.424 148.888 245.784 148.2L246.456 147.048C247.16 147.704 247.864 148.184 248.568 148.488C249.288 148.776 250.048 148.92 250.848 148.92C251.824 148.92 252.616 148.728 253.224 148.344C253.832 147.944 254.136 147.376 254.136 146.64C254.136 146.144 253.984 145.768 253.68 145.512C253.392 145.24 252.968 145.024 252.408 144.864C251.864 144.688 251.208 144.504 250.44 144.312C249.576 144.072 248.848 143.824 248.256 143.568C247.68 143.296 247.24 142.96 246.936 142.56C246.648 142.144 246.504 141.608 246.504 140.952C246.504 140.136 246.704 139.464 247.104 138.936C247.52 138.392 248.08 137.984 248.784 137.712C249.504 137.424 250.304 137.28 251.184 137.28C252.144 137.28 252.992 137.432 253.728 137.736C254.464 138.04 255.064 138.464 255.528 139.008L254.736 140.112C254.288 139.6 253.752 139.224 253.128 138.984C252.52 138.728 251.84 138.6 251.088 138.6C250.576 138.6 250.088 138.672 249.624 138.816C249.16 138.944 248.776 139.168 248.472 139.488C248.184 139.792 248.04 140.216 248.04 140.76C248.04 141.208 248.152 141.56 248.376 141.816C248.6 142.056 248.936 142.264 249.384 142.44C249.832 142.6 250.384 142.776 251.04 142.968C251.984 143.224 252.808 143.488 253.512 143.76C254.216 144.016 254.76 144.352 255.144 144.768C255.528 145.184 255.72 145.768 255.72 146.52C255.72 147.688 255.28 148.6 254.4 149.256C253.52 149.912 252.36 150.24 250.92 150.24Z" fill="#F1F0EC"/>
<defs>
<filter id="filter0_n_11_87" x="117.893" y="0" width="62.7588" height="79.144" filterUnits="userSpaceOnUse" color-interpolation-filters="sRGB">
<feFlood flood-opacity="0" result="BackgroundImageFix"/>
<feBlend mode="normal" in="SourceGraphic" in2="BackgroundImageFix" result="shape"/>
<feTurbulence type="fractalNoise" baseFrequency="3.3333332538604736 3.3333332538604736" stitchTiles="stitch" numOctaves="3" result="noise" seed="3139" />
<feColorMatrix in="noise" type="luminanceToAlpha" result="alphaNoise" />
<feComponentTransfer in="alphaNoise" result="coloredNoise1">
<feFuncA type="discrete" tableValues="0 0 0 1 1 1 1 1 1 1 1 1 1 1 1 1 1 1 1 1 1 1 1 1 1 1 1 1 1 1 1 1 1 1 1 1 1 1 1 1 1 1 1 1 1 1 1 1 0 0 0 0 0 0 0 0 0 0 0 0 0 0 0 0 0 0 0 0 0 0 0 0 0 0 0 0 0 0 0 0 0 0 0 0 0 0 0 0 0 0 0 0 0 0 0 0 0 0 0 0 "/>
</feComponentTransfer>
<feComposite operator="in" in2="shape" in="coloredNoise1" result="noise1Clipped" />
<feFlood flood-color="rgba(0, 0, 0, 0.25)" result="color1Flood" />
<feComposite operator="in" in2="noise1Clipped" in="color1Flood" result="color1" />
<feMerge result="effect1_noise_11_87">
<feMergeNode in="shape" />
<feMergeNode in="color1" />
</feMerge>
</filter>
</defs>
</svg>
